<svg width="56" height="15" viewBox="0 0 56 15" fill="none" xmlns="http://www.w3.org/2000/svg">
<path d="M17.2041 13.1445V2.53906H19.9971V4.375H20.1143C20.5049 3.06641 21.4814 2.38281 22.6729 2.38281C22.9658 2.38281 23.3369 2.42188 23.5908 2.48047V5.05859C23.3174 4.98047 22.7705 4.90234 22.3604 4.90234C21.0518 4.90234 20.0947 5.82031 20.0947 7.10938V13.1445H17.2041ZM29.4307 13.3594C26.2275 13.3594 24.2354 11.1523 24.2354 7.87109C24.2354 4.58984 26.2275 2.40234 29.4307 2.40234C32.6338 2.40234 34.6455 4.58984 34.6455 7.87109C34.6455 11.1523 32.6338 13.3594 29.4307 13.3594ZM29.4502 11.1133C30.9346 11.1133 31.6963 9.72656 31.6963 7.87109C31.6963 5.99609 30.9346 4.60938 29.4502 4.60938C27.9463 4.60938 27.165 5.99609 27.165 7.87109C27.165 9.72656 27.9463 11.1133 29.4502 11.1133ZM41.2275 13.3594C38.0244 13.3594 36.0322 11.1523 36.0322 7.87109C36.0322 4.58984 38.0244 2.40234 41.2275 2.40234C44.4307 2.40234 46.4424 4.58984 46.4424 7.87109C46.4424 11.1523 44.4307 13.3594 41.2275 13.3594ZM41.2471 11.1133C42.7314 11.1133 43.4932 9.72656 43.4932 7.87109C43.4932 5.99609 42.7314 4.60938 41.2471 4.60938C39.7432 4.60938 38.9619 5.99609 38.9619 7.87109C38.9619 9.72656 39.7432 11.1133 41.2471 11.1133ZM53.8447 2.53906V4.70703H51.8525V9.88281C51.8525 10.7227 52.2627 10.9375 52.8486 10.957C53.1416 10.957 53.6494 10.9375 54.001 10.8984V13.1836C53.6885 13.2422 53.1807 13.2812 52.458 13.2812C50.3682 13.2812 48.9424 12.3438 48.9619 10.293V4.70703H47.4971V2.53906H48.9619V0H51.8525V2.53906H53.8447Z" fill="black"/>
<rect y="2.90186" width="4" height="16" rx="2" transform="rotate(-45 0 2.90186)" fill="#2E6AEB"/>
<rect x="11.3135" y="0.0734863" width="4" height="16" rx="2" transform="rotate(45 11.3135 0.0734863)" fill="#2E6AEB"/>
</svg>
